<?xml version="1.0" standalone="no"?>
<!DOCTYPE svg PUBLIC "-//W3C//DTD SVG 20010904//EN"
 "http://www.w3.org/TR/2001/REC-SVG-20010904/DTD/svg10.dtd">
<svg version="1.0" xmlns="http://www.w3.org/2000/svg"
 width="500.000000pt" height="500.000000pt" viewBox="0 0 500.000000 500.000000"
 preserveAspectRatio="xMidYMid meet">
<metadata>
Created by potrace 1.14, written by Peter Selinger 2001-2017
</metadata>
<g transform="translate(0.000000,500.000000) scale(0.100000,-0.100000)"
fill="#000000" stroke="none">
<path d="M806 4202 c-16 -3 -17 -77 -13 -1245 2 -683 6 -1260 10 -1282 4 -22
12 -74 18 -115 73 -493 325 -855 701 -1004 201 -80 516 -116 749 -85 86 12
271 58 288 73 8 6 15 10 15 8 4 -13 143 55 234 114 131 85 256 205 361 345 35
46 66 85 70 87 3 1 6 -121 5 -270 l-1 -273 298 0 c193 0 299 3 300 10 4 55 0
3627 -4 3631 -3 4 -138 7 -299 7 l-293 0 -1 -1074 c-1 -591 -4 -1111 -8 -1157
-17 -204 -74 -388 -170 -542 -112 -180 -277 -313 -477 -384 -125 -45 -217 -60
-374 -60 -156 -1 -213 6 -314 40 -116 39 -169 72 -256 159 -148 147 -227 354
-250 650 -3 39 -5 586 -6 1218 l0 1147 -27 1 c-88 3 -541 3 -556 1z"/>
</g>
</svg>
